<svg width="511" height="751" viewBox="0 0 511 751" fill="none" xmlns="http://www.w3.org/2000/svg">
<path d="M473.033 1.26165C453.3 7.66165 446.233 32.7283 459.967 47.9283C471.567 60.7283 488.767 61.795 501.833 50.3283C511.567 41.6617 513.7 24.195 506.367 12.995C499.567 2.72832 484.633 -2.60502 473.033 1.26165Z" fill="#422B73"/>
<path d="M372.767 37.6616C367.7 38.7283 357.833 42.3283 350.9 45.6616C329.3 56.195 312.5 75.9283 304.5 100.195C301.567 109.128 301.033 113.395 301.033 126.195C300.9 146.728 304.233 158.462 315.433 177.662C317.833 181.662 317.833 181.795 314.5 186.328C304.633 199.528 299.3 217.662 300.633 233.795C303.167 262.728 320.9 285.528 348.633 295.262C357.3 298.462 360.5 298.728 388.5 299.395C416.633 300.195 419.167 300.328 420.9 302.728C423.967 307.128 423.3 313.662 419.3 316.728C415.833 319.395 414.367 319.528 362.633 319.528H309.433V349.528V379.662L369.167 379.262C427.3 378.862 429.033 378.728 436.767 375.928C461.433 366.462 478.9 344.995 482.767 318.995C487.7 285.795 468.9 254.728 436.367 242.462C428.1 239.262 425.3 238.995 396.367 238.328C367.567 237.528 365.033 237.395 363.3 234.995C360.5 231.128 360.9 224.328 364.233 221.395C366.633 219.262 369.967 218.728 388.633 218.062C407.033 217.395 411.567 216.862 420.233 213.795C434.9 208.728 446.1 201.795 456.767 190.862C473.967 173.395 481.3 156.462 482.367 131.928C483.167 114.195 480.9 101.928 474.233 88.0616C459.033 56.595 429.967 37.395 395.433 36.0616C386.633 35.795 378.9 36.3283 372.767 37.6616ZM404.9 99.395C411.833 102.595 419.3 111.395 421.433 118.995C426.9 138.462 411.433 158.195 390.767 158.195C380.367 158.195 367.567 148.995 363.167 138.595C359.167 128.862 362.9 111.262 370.5 104.462C379.3 96.7283 394.1 94.4616 404.9 99.395Z" fill="#F0F0F0"/>
<path d="M1.7 41.1283C-0.566667 43.395 -0.566667 375.662 1.7 377.928C2.76667 378.995 7.83333 379.528 15.5667 379.528C26.6333 379.528 28.3667 379.262 31.5667 376.328C35.9667 372.728 35.8333 376.595 32.7667 321.262C31.3 294.195 31.0333 280.062 31.9667 278.462C34.3667 274.062 37.0333 272.728 50.2333 269.528C80.7667 261.928 100.767 246.195 112.9 220.195C128.767 186.062 129.3 128.995 113.967 94.4616C109.3 83.9283 102.767 74.0616 101.033 75.1283C100.233 75.5283 100.1 75.2616 100.633 74.3283C101.967 72.195 88.5 59.795 78.3667 53.6617C62.7667 44.4617 41.0333 39.5283 15.4333 39.5283C7.83333 39.5283 2.76667 40.0616 1.7 41.1283ZM70.5 184.328C81.3 188.728 89.3 200.328 89.4333 211.528C89.4333 217.928 84.7667 229.528 81.0333 232.728C79.8333 233.662 79.1667 235.128 79.7 236.062C80.1 236.862 80.1 237.128 79.4333 236.595C78.9 236.062 75.9667 236.995 72.9 238.462C65.4333 242.462 53.4333 242.462 45.8333 238.462C40.1 235.528 32.1 226.862 32.1 223.795C32.1 222.862 31.7 222.328 31.1667 222.595C29.0333 223.928 29.3 206.462 31.4333 201.395C37.8333 186.062 55.8333 178.195 70.5 184.328Z" fill="#FB5A4A"/>
<path d="M145.7 40.4616C144.767 40.8616 143.167 42.8616 142.1 44.8616C140.367 48.1949 140.1 70.5949 140.1 212.595C140.1 338.195 140.5 376.728 141.7 377.928C143.833 380.062 159.033 380.062 161.167 377.928C162.367 376.728 162.767 349.928 162.9 266.328L163.033 156.195L181.3 265.262C198.233 367.262 199.7 374.595 202.633 376.995C205.567 379.395 208.367 379.528 243.7 379.528H281.567L284.767 376.195L288.1 372.995V208.328C288.1 117.795 287.7 42.8616 287.3 41.6616C286.633 40.0616 284.5 39.5283 277.3 39.5283C269.567 39.5283 267.967 39.9283 266.767 42.1949C265.833 43.9283 265.433 79.5283 265.433 152.328C265.433 211.528 265.167 260.195 264.767 260.595C264.367 260.995 264.1 260.062 264.1 258.462C264.1 256.862 256.233 208.328 246.767 150.595C230.1 50.7283 229.167 45.3949 225.967 42.4616C222.633 39.5283 222.233 39.5283 185.033 39.6616C164.367 39.6616 146.633 40.0616 145.7 40.4616Z" fill="#3364DA"/>
<path d="M61.4334 276.462C56.2334 278.328 56.1001 280.062 56.1001 327.528C56.1001 367.128 56.3668 374.062 58.2334 376.595C60.2334 379.395 60.9001 379.528 86.1001 379.528C107.833 379.528 112.233 379.128 113.967 377.395C115.833 375.662 116.1 369.262 116.1 328.328C116.1 289.928 115.7 280.862 114.233 278.728C112.5 276.462 110.367 276.195 87.8334 275.928C74.3668 275.795 62.5001 276.062 61.4334 276.462Z" fill="#F0F0F0"/>
<path d="M470.767 371.662C460.233 375.928 453.433 386.462 453.433 398.462C453.567 420.862 475.833 433.928 496.1 423.528C501.967 420.462 507.167 414.462 506.1 411.928C505.833 410.862 505.967 410.328 506.633 410.728C508.233 411.795 510.767 404.328 510.767 398.862C510.767 390.195 503.3 375.528 499.833 377.662C499.167 378.062 498.9 377.662 499.033 376.595C499.3 375.662 498.367 374.995 497.167 374.995C495.833 375.128 495.033 374.728 495.433 374.195C497.433 370.862 477.967 368.862 470.767 371.662Z" fill="#FB5A4A"/>
<path d="M473.033 1.26165C453.3 7.66165 446.233 32.7283 459.967 47.9283C471.567 60.7283 488.767 61.795 501.833 50.3283C511.567 41.6617 513.7 24.195 506.367 12.995C499.567 2.72832 484.633 -2.60502 473.033 1.26165Z" fill="#F0F0F0"/>
<path d="M374.1 407.128C359.033 410.328 332.233 424.462 333.167 428.728C333.3 429.662 332.9 430.062 332.1 429.528C330.233 428.328 322.367 436.462 323.567 438.328C324.1 439.262 323.967 439.528 323.033 438.995C321.3 437.928 314.5 447.395 315.7 449.262C316.1 450.062 315.967 450.195 315.167 449.795C313.3 448.595 305.967 464.862 303.3 476.195C300.1 490.195 301.167 512.995 305.833 526.062C309.833 537.128 315.7 547.928 317.3 546.995C319.7 545.395 317.567 551.528 313.033 558.462C305.167 570.728 302.5 578.728 301.833 592.862C300.9 608.328 302.767 617.928 308.9 630.195C314.1 640.462 328.5 656.195 331.7 654.995C332.767 654.595 333.3 654.728 332.9 655.395C331.7 657.128 344.233 663.262 353.567 665.528C359.7 666.862 369.7 667.528 389.033 667.528C415.167 667.528 416.1 667.662 419.567 670.595C421.967 672.728 423.033 674.862 423.033 677.662C422.767 684.595 422.233 687.128 420.767 687.528C420.1 687.662 395.033 688.195 365.167 688.462L310.9 688.862L310.5 718.862L310.1 748.862H365.033C400.233 748.862 422.5 748.328 427.033 747.395C440.367 744.595 453.033 737.662 462.633 727.795C471.7 718.595 479.7 705.128 478.233 701.528C477.833 700.328 477.967 699.662 478.633 700.062C480.633 701.262 482.767 689.662 482.767 677.795C482.767 648.195 465.967 624.062 437.033 612.462C430.9 609.928 426.5 609.528 398.367 608.862L366.5 608.195L363.3 604.462C359.3 599.662 359.3 596.728 363.433 591.795L366.767 587.795L387.7 587.262C405.7 586.728 410.367 586.062 419.433 583.128C469.567 566.728 495.433 512.462 476.367 463.528C465.967 436.462 441.3 414.862 413.433 408.328C405.433 406.328 380.767 405.662 374.1 407.128ZM401.567 466.862C409.967 469.928 415.433 474.595 419.3 482.462C429.967 503.928 414.9 527.662 390.633 527.528C371.167 527.395 355.433 505.395 362.1 487.528C363.3 484.195 364.367 480.462 364.5 479.262C364.633 478.062 365.033 477.262 365.567 477.662C366.1 477.928 367.167 477.262 368.1 476.062C370.9 472.862 377.433 468.595 382.633 466.728C389.033 464.328 394.633 464.462 401.567 466.862Z" fill="#FB5A4A"/>
<path d="M0.76665 410.462C0.36665 411.395 0.233317 487.795 0.36665 580.195L0.76665 748.195L13.7 748.595C27.4333 748.995 30.7666 748.062 33.9666 743.128C35.7 740.595 35.5667 734.595 33.4333 695.528C30.6333 647.395 30.7667 645.928 37.4333 642.728C39.3 641.795 46.1 639.795 52.6333 638.195C99.7 627.128 125.433 587.395 125.433 525.528C125.433 459.662 97.3 420.328 43.4333 410.728C29.7 408.328 1.56665 408.195 0.76665 410.462Z" fill="#3365D8"/>
<path d="M143.433 412.195L140.1 415.395V580.595C140.1 707.128 140.5 746.062 141.7 747.262C143.833 749.395 159.033 749.395 161.167 747.262C162.367 746.062 162.767 719.395 162.9 636.328L163.033 526.862L179.433 624.862C188.367 678.728 196.5 727.262 197.433 732.728C198.633 739.795 199.967 743.528 202.233 745.795L205.3 748.862H243.967H282.633L285.3 745.395L288.1 741.795L287.833 575.662L287.433 409.528L278.367 409.128C272.767 408.862 268.5 409.395 267.3 410.328C265.7 411.662 265.433 428.995 265.3 521.395C265.167 581.528 264.767 628.995 264.5 626.862C263.967 623.395 248.767 531.528 234.1 442.995C230.233 420.062 228.9 414.462 226.5 411.928L223.7 408.862H185.167H146.633L143.433 412.195Z" fill="#F0F0F0"/>
<path d="M79.8333 671.662C66.4999 673.795 49.5666 687.662 51.5666 694.728C51.9666 696.595 51.8333 696.995 51.0333 695.795C49.4333 693.395 46.7666 702.728 46.7666 711.128C46.7666 726.462 55.0333 740.062 68.6333 747.262C74.4999 750.328 77.0333 750.862 86.7666 750.862C95.4333 750.862 99.5666 750.195 104.233 748.062C117.7 741.795 127.033 727.262 127.167 712.328C127.433 685.928 105.967 667.395 79.8333 671.662Z" fill="#FB5A4A"/>
</svg>
