<svg width="511" height="751" viewBox="0 0 511 751" fill="none" xmlns="http://www.w3.org/2000/svg">
<path d="M473.267 1.40002C453.533 7.80002 446.467 32.8667 460.2 48.0667C471.8 60.8667 489 61.9334 502.067 50.4667C511.8 41.8 513.933 24.3334 506.6 13.1334C499.8 2.86668 484.867 -2.46665 473.267 1.40002Z" fill="#422B73"/>
<path d="M373 37.8C367.933 38.8667 358.067 42.4667 351.133 45.8C329.533 56.3333 312.733 76.0667 304.733 100.333C301.8 109.267 301.267 113.533 301.267 126.333C301.133 146.867 304.467 158.6 315.667 177.8C318.067 181.8 318.067 181.933 314.733 186.467C304.867 199.667 299.533 217.8 300.867 233.933C303.4 262.867 321.133 285.667 348.867 295.4C357.533 298.6 360.733 298.867 388.733 299.533C416.867 300.333 419.4 300.467 421.133 302.867C424.2 307.267 423.533 313.8 419.533 316.867C416.067 319.533 414.6 319.667 362.867 319.667H309.667V349.667V379.8L369.4 379.4C427.533 379 429.267 378.867 437 376.067C461.667 366.6 479.133 345.133 483 319.133C487.933 285.933 469.133 254.867 436.6 242.6C428.333 239.4 425.533 239.133 396.6 238.467C367.8 237.667 365.267 237.533 363.533 235.133C360.733 231.267 361.133 224.467 364.467 221.533C366.867 219.4 370.2 218.867 388.867 218.2C407.267 217.533 411.8 217 420.467 213.933C435.133 208.867 446.333 201.933 457 191C474.2 173.533 481.533 156.6 482.6 132.067C483.4 114.333 481.133 102.067 474.467 88.2C459.267 56.7334 430.2 37.5334 395.667 36.2C386.867 35.9334 379.133 36.4667 373 37.8ZM405.133 99.5334C412.067 102.733 419.533 111.533 421.667 119.133C427.133 138.6 411.667 158.333 391 158.333C380.6 158.333 367.8 149.133 363.4 138.733C359.4 129 363.133 111.4 370.733 104.6C379.533 96.8667 394.333 94.6 405.133 99.5334Z" fill="#422B73"/>
<path d="M1.9334 41.2666C-0.333268 43.5333 -0.333268 375.8 1.9334 378.067C3.00007 379.133 8.06673 379.667 15.8001 379.667C26.8667 379.667 28.6001 379.4 31.8001 376.467C36.2001 372.867 36.0667 376.733 33.0001 321.4C31.5334 294.333 31.2667 280.2 32.2001 278.6C34.6001 274.2 37.2667 272.867 50.4667 269.667C81.0001 262.067 101 246.333 113.133 220.333C129 186.2 129.533 129.133 114.2 94.6C109.533 84.0667 103 74.2 101.267 75.2666C100.467 75.6666 100.333 75.4 100.867 74.4666C102.2 72.3333 88.7334 59.9333 78.6001 53.8C63.0001 44.6 41.2667 39.6666 15.6667 39.6666C8.06673 39.6666 3.00007 40.2 1.9334 41.2666ZM70.7334 184.467C81.5334 188.867 89.5334 200.467 89.6667 211.667C89.6667 218.067 85.0001 229.667 81.2667 232.867C80.0667 233.8 79.4001 235.267 79.9334 236.2C80.3334 237 80.3334 237.267 79.6667 236.733C79.1334 236.2 76.2001 237.133 73.1334 238.6C65.6667 242.6 53.6667 242.6 46.0667 238.6C40.3334 235.667 32.3334 227 32.3334 223.933C32.3334 223 31.9334 222.467 31.4001 222.733C29.2667 224.067 29.5334 206.6 31.6667 201.533C38.0667 186.2 56.0667 178.333 70.7334 184.467Z" fill="#FB5A4A"/>
<path d="M145.933 40.5999C145 40.9999 143.4 42.9999 142.333 44.9999C140.6 48.3333 140.333 70.7333 140.333 212.733C140.333 338.333 140.733 376.867 141.933 378.067C144.067 380.2 159.267 380.2 161.4 378.067C162.6 376.867 163 350.067 163.133 266.467L163.267 156.333L181.533 265.4C198.467 367.4 199.933 374.733 202.867 377.133C205.8 379.533 208.6 379.667 243.934 379.667H281.8L285 376.333L288.334 373.133V208.467C288.334 117.933 287.934 42.9999 287.534 41.7999C286.867 40.2 284.734 39.6666 277.534 39.6666C269.8 39.6666 268.2 40.0666 267 42.3333C266.067 44.0666 265.667 79.6666 265.667 152.467C265.667 211.667 265.4 260.333 265 260.733C264.6 261.133 264.334 260.2 264.334 258.6C264.334 257 256.467 208.467 247 150.733C230.334 50.8666 229.4 45.5333 226.2 42.5999C222.867 39.6666 222.467 39.6666 185.267 39.7999C164.6 39.7999 146.867 40.2 145.933 40.5999Z" fill="#3364DA"/>
<path d="M61.6668 276.6C56.4668 278.467 56.3335 280.2 56.3335 327.667C56.3335 367.267 56.6002 374.2 58.4668 376.733C60.4668 379.533 61.1335 379.667 86.3335 379.667C108.067 379.667 112.467 379.267 114.2 377.533C116.067 375.8 116.333 369.4 116.333 328.467C116.333 290.067 115.933 281 114.467 278.867C112.733 276.6 110.6 276.333 88.0668 276.067C74.6002 275.933 62.7335 276.2 61.6668 276.6Z" fill="#422B73"/>
<path d="M471 371.8C460.467 376.067 453.667 386.6 453.667 398.6C453.8 421 476.067 434.067 496.333 423.667C502.2 420.6 507.4 414.6 506.333 412.067C506.067 411 506.2 410.467 506.867 410.867C508.467 411.933 511 404.467 511 399C511 390.333 503.533 375.667 500.067 377.8C499.4 378.2 499.133 377.8 499.267 376.733C499.533 375.8 498.6 375.133 497.4 375.133C496.067 375.267 495.267 374.867 495.667 374.333C497.667 371 478.2 369 471 371.8Z" fill="#FB5A4A"/>
<path d="M473.267 1.40002C453.533 7.80002 446.467 32.8667 460.2 48.0667C471.8 60.8667 489 61.9334 502.067 50.4667C511.8 41.8 513.933 24.3334 506.6 13.1334C499.8 2.86668 484.867 -2.46665 473.267 1.40002Z" fill="#422B73"/>
<path d="M374.333 407.267C359.267 410.467 332.467 424.6 333.4 428.867C333.533 429.8 333.133 430.2 332.333 429.667C330.467 428.467 322.6 436.6 323.8 438.467C324.333 439.4 324.2 439.667 323.267 439.133C321.533 438.067 314.733 447.533 315.933 449.4C316.333 450.2 316.2 450.333 315.4 449.933C313.533 448.733 306.2 465 303.533 476.333C300.333 490.333 301.4 513.133 306.067 526.2C310.067 537.267 315.933 548.067 317.533 547.133C319.933 545.533 317.8 551.667 313.267 558.6C305.4 570.867 302.733 578.867 302.067 593C301.133 608.467 303 618.067 309.133 630.333C314.333 640.6 328.733 656.333 331.933 655.133C333 654.733 333.533 654.867 333.133 655.533C331.933 657.267 344.467 663.4 353.8 665.667C359.933 667 369.933 667.667 389.267 667.667C415.4 667.667 416.333 667.8 419.8 670.733C422.2 672.867 423.267 675 423.267 677.8C423 684.733 422.467 687.267 421 687.667C420.333 687.8 395.267 688.333 365.4 688.6L311.133 689L310.733 719L310.333 749H365.267C400.467 749 422.733 748.467 427.267 747.533C440.6 744.733 453.267 737.8 462.867 727.933C471.933 718.733 479.933 705.267 478.467 701.667C478.067 700.467 478.2 699.8 478.867 700.2C480.867 701.4 483 689.8 483 677.933C483 648.333 466.2 624.2 437.267 612.6C431.133 610.067 426.733 609.667 398.6 609L366.733 608.333L363.533 604.6C359.533 599.8 359.533 596.867 363.667 591.933L367 587.933L387.933 587.4C405.933 586.867 410.6 586.2 419.667 583.267C469.8 566.867 495.667 512.6 476.6 463.667C466.2 436.6 441.533 415 413.667 408.467C405.667 406.467 381 405.8 374.333 407.267ZM401.8 467C410.2 470.067 415.667 474.733 419.533 482.6C430.2 504.067 415.133 527.8 390.867 527.667C371.4 527.533 355.667 505.533 362.333 487.667C363.533 484.333 364.6 480.6 364.733 479.4C364.867 478.2 365.267 477.4 365.8 477.8C366.333 478.067 367.4 477.4 368.333 476.2C371.133 473 377.667 468.733 382.867 466.867C389.267 464.467 394.867 464.6 401.8 467Z" fill="#FB5A4A"/>
<path d="M1.00005 410.6C0.600049 411.533 0.466715 487.933 0.600049 580.333L1.00005 748.333L13.9334 748.733C27.6667 749.133 31 748.2 34.2 743.267C35.9334 740.733 35.8 734.733 33.6667 695.667C30.8667 647.533 31 646.067 37.6667 642.867C39.5334 641.933 46.3334 639.933 52.8667 638.333C99.9334 627.267 125.667 587.533 125.667 525.667C125.667 459.8 97.5334 420.467 43.6667 410.867C29.9334 408.467 1.80005 408.333 1.00005 410.6Z" fill="#3365D8"/>
<path d="M143.667 412.333L140.333 415.533V580.733C140.333 707.267 140.733 746.2 141.933 747.4C144.067 749.533 159.267 749.533 161.4 747.4C162.6 746.2 163 719.533 163.133 636.467L163.267 527L179.667 625C188.6 678.867 196.733 727.4 197.667 732.867C198.867 739.933 200.2 743.667 202.467 745.933L205.533 749H244.2H282.867L285.533 745.533L288.333 741.933L288.067 575.8L287.667 409.667L278.6 409.267C273 409 268.733 409.533 267.533 410.467C265.933 411.8 265.667 429.133 265.533 521.533C265.4 581.667 265 629.133 264.733 627C264.2 623.533 249 531.667 234.333 443.133C230.467 420.2 229.133 414.6 226.733 412.067L223.933 409H185.4H146.867L143.667 412.333Z" fill="#422B73"/>
<path d="M80.0667 671.8C66.7333 673.933 49.8 687.8 51.8 694.867C52.2 696.733 52.0667 697.133 51.2667 695.933C49.6667 693.533 47 702.867 47 711.267C47 726.6 55.2667 740.2 68.8667 747.4C74.7333 750.467 77.2667 751 87 751C95.6667 751 99.8 750.333 104.467 748.2C117.933 741.933 127.267 727.4 127.4 712.467C127.667 686.067 106.2 667.533 80.0667 671.8Z" fill="#FB5A4A"/>
</svg>
