<svg width="127" height="258" viewBox="0 0 127 258" fill="none" xmlns="http://www.w3.org/2000/svg">
<path d="M79.5166 177.82C66.1833 179.953 49.25 193.82 51.25 200.887C51.65 202.753 51.5166 203.153 50.7166 201.953C49.1166 199.553 46.45 208.887 46.45 217.287C46.45 232.62 54.7166 246.22 68.3166 253.42C74.1833 256.487 76.7166 257.02 86.45 257.02C95.1166 257.02 99.25 256.353 103.917 254.22C117.383 247.953 126.717 233.42 126.85 218.487C127.117 192.087 105.65 173.553 79.5166 177.82Z" fill="#FB5A4A"/>
<path d="M0.456774 1.2155C0.0507526 1.91583 -0.0845877 59.2435 0.0507526 128.577L0.456774 254.638L13.5848 254.938C27.5248 255.238 30.9084 254.538 34.1565 250.836C35.9159 248.935 35.7806 244.433 33.6152 215.119C30.773 179.001 30.9084 177.901 37.6754 175.5C39.5701 174.799 46.4725 173.299 53.1042 172.098C100.879 163.794 127 133.98 127 87.5572C127 38.1333 98.4432 8.61907 43.7657 1.41559C29.8256 -0.385281 1.26882 -0.485326 0.456774 1.2155Z" fill="#3365D8"/>
</svg>
